<?xml version="1.0" encoding="utf-8"?>
<!-- Generator: Adobe Illustrator 26.4.1, SVG Export Plug-In . SVG Version: 6.00 Build 0)  -->
<svg version="1.1" id="Layer_1" xmlns="http://www.w3.org/2000/svg" xmlns:xlink="http://www.w3.org/1999/xlink" x="0px" y="0px"
	 viewBox="0 0 64 64" style="enable-background:new 0 0 64 64;" xml:space="preserve">
<style type="text/css">
	.st0{fill:#DDA63A;}
	.st1{fill:#FFFFFF;}
</style>
<g>
	<path id="_Path_" class="st0" d="M0,0h64v64H0V0z"/>
	<path id="_Path_2" class="st1" d="M12,16.5H8.4v-0.6c0-1,0.4-1.4,0.9-2l1.4-1.5c1.1-1.2,1.4-2,1.4-3.3V7.9c0-1.8-0.9-2.7-2.8-2.7
		c-1.9,0-2.9,1-2.9,2.8v1.6h2V8c0-0.8,0.4-1,0.8-1c0.4,0,0.8,0.2,0.8,1V9c0,1.1-0.1,1.5-0.8,2.2L8,12.5c-1.2,1.3-1.6,2.1-1.6,3.4
		v2.4H12V16.5z"/>
	<path id="_Path_3" class="st1" d="M26.4,54.4v0.9c0,0,0,0,0,0c0,0,0,0,0,0c0,0.2,0.2,0.4,0.4,0.4h10.6c0.2,0,0.4-0.2,0.4-0.4
		c0,0,0,0,0,0v-1c5.9-1.9,10.4-6.8,11.4-12.6c0,0,0,0,0,0c0,0,0,0,0-0.1c0-0.2-0.2-0.4-0.4-0.4c0,0,0,0,0,0H15.2
		c-0.2,0-0.4,0.2-0.4,0.4c0,0,0,0,0,0l0,0.2C15.8,47.7,20.4,52.5,26.4,54.4"/>
	<path id="_Path_4" class="st1" d="M37.9,26.8c-0.1,0.2-3.4,4.9,0.1,8.7c1.6,1.7,1.5,3.3,1,4.3h2.2c0.4-1.5,0.3-3.4-1.5-5.4
		c-2.6-2.8,0-6.6,0.1-6.6c0.3-0.4,0.1-1-0.4-1.2S38.2,26.3,37.9,26.8"/>
	<path id="_Path_5" class="st1" d="M32.2,39.7h2.2c0.4-1.5,0.3-3.4-1.5-5.4c-2.6-2.8,0-6.6,0.1-6.6c0.3-0.4,0.1-1-0.4-1.2
		s-1.2-0.1-1.5,0.3c-0.1,0.2-3.4,4.9,0.1,8.7C32.8,37.2,32.7,38.7,32.2,39.7"/>
	<path id="_Path_6" class="st1" d="M24.5,26.8c-0.1,0.2-3.4,4.9,0.1,8.7c1.6,1.7,1.5,3.3,1,4.3h2.2c0.4-1.5,0.3-3.4-1.5-5.4
		c-2.6-2.8,0-6.6,0.1-6.6c0.3-0.4,0.1-1-0.4-1.2C25.4,26.2,24.8,26.3,24.5,26.8"/>
	<g id="_Group_">
		<path id="_Compound_Path_" class="st1" d="M19.1,9.9h1.3v0.7h-2.3V9.9l1.4-3.8h-1.2V5.4h2.2v0.7L19.1,9.9z"/>
		<path id="_Compound_Path_2" class="st1" d="M21.1,5.4h2.1v0.7h-1.2v1.5h0.9v0.7h-0.9v1.6h1.2v0.7h-2.1V5.4z"/>
		<path id="_Compound_Path_3" class="st1" d="M24.6,8.2v2.4h-0.9V5.4H25c0.9,0,1.2,0.4,1.2,1.2v0.7c0,0.6-0.2,0.9-0.7,1l0.8,2.4
			h-0.9L24.6,8.2z M24.6,6.1v1.6h0.3c0.3,0,0.4-0.2,0.4-0.4V6.5c0-0.3-0.1-0.4-0.4-0.4H24.6z"/>
		<path id="_Compound_Path_4" class="st1" d="M26.8,9.2V6.7c0-0.8,0.4-1.4,1.3-1.4s1.3,0.6,1.3,1.4v2.5c0,0.8-0.4,1.4-1.3,1.4
			S26.8,10.1,26.8,9.2L26.8,9.2z M28.5,9.4V6.6c0-0.3-0.1-0.5-0.5-0.5s-0.4,0.2-0.4,0.5v2.8c0,0.3,0.1,0.5,0.4,0.5
			C28.4,9.9,28.5,9.7,28.5,9.4z"/>
	</g>
	<g id="_Group_2">
		<path id="_Compound_Path_5" class="st1" d="M20,16h-0.8v2.3h-0.9V13h0.9v2.2H20V13h0.9v5.2H20V16z"/>
		<path id="_Compound_Path_6" class="st1" d="M24,13v4c0,0.8-0.3,1.3-1.2,1.3c-0.9,0-1.3-0.5-1.3-1.3v-4h0.9v4
			c0,0.3,0.1,0.5,0.4,0.5c0.3,0,0.4-0.2,0.4-0.5v-4L24,13z"/>
		<path id="_Compound_Path_7" class="st1" d="M25.3,15v3.3h-0.7V13h0.9l0.9,3v-3h0.7v5.2h-0.8L25.3,15z"/>
		<path id="_Compound_Path_8" class="st1" d="M29,15.5h1.3v2.8h-0.6v-0.6c-0.1,0.4-0.4,0.6-0.8,0.6c-0.8,0-1.1-0.6-1.1-1.4v-2.5
			c0-0.8,0.4-1.4,1.3-1.4c1,0,1.3,0.5,1.3,1.3v0.5h-0.8v-0.5c0-0.3-0.1-0.5-0.4-0.5s-0.5,0.2-0.5,0.5V17c0,0.3,0.1,0.5,0.4,0.5
			c0.3,0,0.4-0.2,0.4-0.5v-0.9H29L29,15.5z"/>
		<path id="_Compound_Path_9" class="st1" d="M30.9,13H33v0.7h-1.2v1.5h0.9V16h-0.9v1.6H33v0.7h-2.1L30.9,13z"/>
		<path id="_Compound_Path_10" class="st1" d="M34.4,15.9v2.4h-0.9V13h1.3c0.9,0,1.2,0.4,1.2,1.2v0.7c0,0.6-0.2,0.9-0.7,1l0.8,2.4
			h-0.9L34.4,15.9z M34.4,13.7v1.6h0.3c0.3,0,0.4-0.2,0.4-0.4v-0.8c0-0.3-0.1-0.4-0.4-0.4L34.4,13.7z"/>
	</g>
</g>
</svg>
