<?xml version="1.0" encoding="utf-8"?>
<!-- Generator: Adobe Illustrator 26.4.1, SVG Export Plug-In . SVG Version: 6.00 Build 0)  -->
<svg version="1.1" id="Layer_1" xmlns="http://www.w3.org/2000/svg" xmlns:xlink="http://www.w3.org/1999/xlink" x="0px" y="0px"
	 viewBox="0 0 64 64" style="enable-background:new 0 0 64 64;" xml:space="preserve">
<style type="text/css">
	.st0{fill:url(#SVGID_1_);}
	.st1{fill:#FFFFFF;}
</style>
<linearGradient id="SVGID_1_" gradientUnits="userSpaceOnUse" x1="32" y1="1.8" x2="32" y2="62.2" gradientTransform="matrix(1 0 0 -1 0 64)">
	<stop  offset="0" style="stop-color:#118B44"/>
	<stop  offset="0.7415" style="stop-color:#7FD751"/>
	<stop  offset="1" style="stop-color:#A6F255"/>
</linearGradient>
<path class="st0" d="M62.2,62.2H1.8V1.8h60.4V62.2z"/>
<path class="st1" d="M32,54.3c-3.9,0-7.4-2.7-8.3-6.4c-4.9-3-8-8.3-8-14c0-4.7,3.9-12,11.5-21.8c1.2-1.5,3-2.4,4.9-2.4
	s3.7,0.9,4.9,2.4c7.6,9.7,11.4,17.1,11.4,21.8c0,5.8-3,11.1-8,14C39.3,51.6,35.9,54.3,32,54.3z M32,37c2.9,0,5.6,1.5,7.1,3.8
	c1.8-1.8,2.8-4.3,2.8-6.9c0-2.4-2.6-8.3-9.9-17.7c-7.3,9.4-10,15.3-10,17.6c0,2.6,1,5.1,2.8,6.9C26.5,38.5,29.1,37,32,37z"/>
</svg>
