<?xml version="1.0" encoding="utf-8"?>
<!-- Generator: Adobe Illustrator 26.4.1, SVG Export Plug-In . SVG Version: 6.00 Build 0)  -->
<svg version="1.1" id="Layer_1" xmlns="http://www.w3.org/2000/svg" xmlns:xlink="http://www.w3.org/1999/xlink" x="0px" y="0px"
	 viewBox="0 0 64 64" style="enable-background:new 0 0 64 64;" xml:space="preserve">
<style type="text/css">
	.st0{fill:#FFFFFF;}
</style>
<path class="st0" d="M31.74,60.97c-5.09,0-9.52-3.49-10.79-8.32c-6.4-3.83-10.32-10.67-10.32-18.16c0-6.1,4.99-15.58,14.84-28.16
	C27,4.38,29.3,3.25,31.78,3.25c2.5,0,4.8,1.13,6.33,3.1c9.78,12.59,14.74,22.09,14.74,28.25c0,7.48-3.93,14.31-10.33,18.11
	C41.22,57.5,36.8,60.97,31.74,60.97z M31.74,38.62c3.76,0,7.18,1.89,9.22,4.88c2.3-2.36,3.62-5.53,3.62-8.9
	c0-3.09-3.37-10.73-12.8-22.92C22.29,23.86,18.9,31.45,18.9,34.5c0,3.39,1.33,6.59,3.65,8.97C24.59,40.5,28,38.62,31.74,38.62z"/>
</svg>
