<?xml version="1.0" encoding="utf-8"?>
<!-- Generator: Adobe Illustrator 26.4.1, SVG Export Plug-In . SVG Version: 6.00 Build 0)  -->
<svg version="1.1" id="Layer_1" xmlns="http://www.w3.org/2000/svg" xmlns:xlink="http://www.w3.org/1999/xlink" x="0px" y="0px"
	 viewBox="0 0 145 32" style="enable-background:new 0 0 145 32;" xml:space="preserve">
<style type="text/css">
	.st0{fill:#FFFFFF;}
</style>
<g>
	<path class="st0" d="M42.09,0c-1.38,0-2.65,0.62-3.5,1.71c-5.46,6.98-8.23,12.23-8.23,15.62c0,4.15,2.17,7.95,5.72,10.07
		c0.71,2.67,3.16,4.61,5.98,4.61c2.81,0,5.26-1.92,5.98-4.58c3.55-2.11,5.73-5.89,5.73-10.04c0-3.41-2.75-8.68-8.17-15.66
		C44.76,0.63,43.48,0,42.09,0z M47.18,22.31c-1.13-1.66-3.03-2.71-5.11-2.71c-2.07,0-3.97,1.04-5.1,2.69
		c-1.29-1.32-2.02-3.09-2.02-4.97c0-1.69,1.88-5.9,7.14-12.65c5.23,6.76,7.1,10.99,7.1,12.71C49.19,19.25,48.46,21,47.18,22.31z"/>
	<path class="st0" d="M78.42,0H62.91c-1.47,0-2.66,1.19-2.66,2.66v26.68c0,1.47,1.19,2.66,2.66,2.66h1.28
		c1.47,0,2.66-1.19,2.66-2.66v-7.76c0-1.47,1.19-2.66,2.66-2.66h7.34c1.47,0,2.66-1.19,2.66-2.66s-1.19-2.66-2.66-2.66H69.5
		c-1.47,0-2.66-1.19-2.66-2.66V8c0-1.47,1.19-2.66,2.66-2.66h8.92c1.47,0,2.66-1.19,2.66-2.66V2.66C81.08,1.19,79.89,0,78.42,0z"/>
	<path class="st0" d="M8.68,6.11c0.87-0.66,2.09-0.99,3.66-0.99c1.63,0,2.89,0.4,3.79,1.19c0.45,0.4,0.79,0.88,1.02,1.44
		c0.43,1.07,1.33,1.88,2.49,1.88h4.26c0-1.87-0.48-3.54-1.44-5.01c-0.96-1.47-2.31-2.61-4.05-3.41C16.66,0.4,14.67,0,12.45,0
		c-2.21,0-4.2,0.37-5.98,1.11S3.33,2.88,2.39,4.2C1.44,5.52,0.96,7.02,0.96,8.7c0,3.24,1.77,5.81,5.3,7.72
		c1.3,0.7,3.06,1.41,5.28,2.13c2.22,0.72,3.76,1.4,4.62,2.05c0.86,0.65,1.28,1.58,1.28,2.79c0,1.11-0.43,1.98-1.28,2.6
		c-0.86,0.62-2.05,0.93-3.57,0.93c-3.22,0-5.17-1.05-5.87-3.16c-0.38-1.14-1.32-1.99-2.51-1.99H0c0,2.01,0.52,3.78,1.55,5.3
		c1.03,1.53,2.53,2.73,4.5,3.6C8.02,31.56,10.2,32,12.6,32c3.45,0,6.2-0.77,8.24-2.3c2.04-1.53,3.06-3.65,3.06-6.34
		c0-2.42-0.83-4.45-2.5-6.08c-1.67-1.62-4.33-2.99-7.98-4.08c-1.98-0.6-3.48-1.24-4.5-1.93c-1.02-0.68-1.53-1.53-1.53-2.54
		C7.38,7.64,7.82,6.77,8.68,6.11z"/>
	<path class="st0" d="M143.13,7.31c-1.24-2.34-2.98-4.14-5.2-5.41c-2.22-1.27-4.74-1.9-7.55-1.9h-7.18c-1.47,0-2.66,1.19-2.66,2.66
		v26.68c0,1.47,1.19,2.66,2.66,2.66h7.25c2.8-0.02,5.31-0.66,7.54-1.94c2.23-1.27,3.95-3.07,5.18-5.38
		c1.22-2.32,1.83-4.96,1.83-7.93v-1.47C145,12.3,144.38,9.64,143.13,7.31z M138.32,16.94c-0.03,3.13-0.72,5.55-2.09,7.23
		c-1.36,1.68-3.33,2.53-5.91,2.53h-3.19V5.34h3.25c2.59,0,4.56,0.84,5.91,2.52c1.35,1.68,2.02,4.14,2.02,7.39V16.94z"/>
	<path class="st0" d="M107.73,1.87C105.72,0.62,103.41,0,100.81,0s-4.9,0.62-6.92,1.87c-2.02,1.25-3.58,3.04-4.69,5.37
		c-1.1,2.33-1.66,5.03-1.66,8.1v1.54c0.02,3,0.58,5.65,1.69,7.95c1.11,2.3,2.68,4.08,4.7,5.32c2.03,1.24,4.33,1.86,6.91,1.86
		c2.61,0,4.92-0.63,6.94-1.88c2.02-1.25,3.57-3.04,4.65-5.35c1.09-2.31,1.62-5,1.62-8.06v-1.39c0-3.05-0.55-5.74-1.66-8.07
		C111.31,4.91,109.75,3.12,107.73,1.87z M107.57,16.81c-0.02,3.24-0.6,5.7-1.75,7.39c-1.15,1.69-2.81,2.53-4.96,2.53
		c-2.2,0-3.88-0.88-5.05-2.63c-1.17-1.75-1.75-4.22-1.75-7.4v-1.52c0.01-3.24,0.61-5.69,1.78-7.37C97,6.14,98.66,5.3,100.81,5.3
		c2.17,0,3.84,0.85,5.01,2.55c1.17,1.7,1.75,4.18,1.75,7.44V16.81z"/>
</g>
</svg>
